<?xml version="1.0" standalone="no"?><!DOCTYPE svg PUBLIC "-//W3C//DTD SVG 1.1//EN"
  "http://www.w3.org/Graphics/SVG/1.1/DTD/svg11.dtd">
<svg xmlns:xlink="http://www.w3.org/1999/xlink" t="1702986331206" class="icon" viewBox="0 0 1024 1024" version="1.1"
     xmlns="http://www.w3.org/2000/svg" p-id="29529" width="32" height="32">
  <path
    d="M512 64C264.6 64 64 264.6 64 512s200.6 448 448 448 448-200.6 448-448S759.4 64 512 64z m149.5 801.8C614.2 885.9 563.9 896 512 896c-51.9 0-102.2-10.1-149.5-30.2-45.7-19.3-86.8-47-122.1-82.3s-63-76.4-82.3-122.1c-20-47.3-30.2-97.6-30.2-149.5s10.1-102.2 30.2-149.5c15.2-35.9 35.5-68.9 60.6-98.5L760 805.2c-29.6 25.1-62.6 45.5-98.5 60.6zM805.2 760L264 218.8c29.6-25.1 62.6-45.5 98.5-60.6 47.3-20 97.6-30.2 149.5-30.2 51.9 0 102.2 10.1 149.5 30.2 45.7 19.3 86.8 47 122.1 82.3s63 76.4 82.3 122.1c20 47.3 30.2 97.6 30.2 149.5S886 614.3 865.9 661.6c-15.2 35.7-35.6 68.7-60.7 98.4z"
    fill="#d81e06" p-id="29530"></path>
</svg>
